<svg xmlns="http://www.w3.org/2000/svg" viewBox="0 0 1503 1504" role="img" aria-label="Avalanche">
  <rect width="1503" height="1504" fill="#E84142"/>
  <path fill="#fff" d="M538 1050H392c-31 0-46 0-55-6a37 37 0 01-17-29c-1-11 7-24 22-50l360-635c15-27 23-40 33-45a37 37 0 0134 0c10 5 18 18 33 45l74 130 1 1c16 28 24 42 27 58a108 108 0 010 38c-3 15-11 30-27 58L699 1017l-1 1c-16 28-24 42-35 52a108 108 0 01-44 26c-15 4-32 4-66 4zm369 0h209c31 0 47 0 56-6a37 37 0 0017-30c1-10-7-23-21-48l-1-2-105-179-1-2c-15-25-22-38-32-43a37 37 0 00-33 0c-10 5-18 18-33 44l-104 179-1 1c-14 26-21 39-21 49a37 37 0 0017 30c9 6 25 6 56 6z"/>
</svg>
